<?xml version="1.0" standalone="no"?><!DOCTYPE svg PUBLIC "-//W3C//DTD SVG 1.1//EN" "http://www.w3.org/Graphics/SVG/1.1/DTD/svg11.dtd"><svg t="1744185476743" class="icon" viewBox="0 0 1024 1024" version="1.1" xmlns="http://www.w3.org/2000/svg" p-id="84409" xmlns:xlink="http://www.w3.org/1999/xlink" width="48" height="48"><path d="M69.6064 576.68096h415.27808v254.8736c0 35.15392-28.57472 63.72864-63.7184 63.72864s-63.72352-28.57472-63.72352-63.72352H293.72416c0 70.38976 57.05216 127.44192 127.4368 127.44192 66.31424 0 120.87296-50.68288 126.848-115.49184 0.39424-1.9968 0.59392-3.98336 0.59392-5.97504v-260.85376h402.6368v-63.72352h0.1024c-31.26784-203.31008-199.82336-361.4208-408.0128-376.5504v-41.61536c0-15.63136-14.23872-28.27776-31.86176-28.27776-17.62304 0-31.85664 12.6464-31.85664 28.27776v41.51296c-209.08544 14.34112-378.54208 172.7488-409.90208 376.6528h-0.1024v63.72352z m440.86784-377.6512c187.87328 0 343.9872 135.41376 376.24832 313.92768H134.22592c32.256-178.51392 188.4672-313.92256 376.24832-313.92256z m0 0" fill="#272636" p-id="84410"></path></svg>