<?xml version="1.0" standalone="no"?><!DOCTYPE svg PUBLIC "-//W3C//DTD SVG 1.1//EN" "http://www.w3.org/Graphics/SVG/1.1/DTD/svg11.dtd"><svg t="1744165545431" class="icon" viewBox="0 0 1024 1024" version="1.1" xmlns="http://www.w3.org/2000/svg" p-id="43131" xmlns:xlink="http://www.w3.org/1999/xlink" width="48" height="48"><path d="M682.666667 597.333333c0-23.466667-19.2-42.666667-42.666667-42.666666h-85.333333v-42.666667h85.333333c23.466667 0 42.666667-19.2 42.666667-42.666667s-19.2-42.666667-42.666667-42.666666h-39.253333l44.373333-76.8c11.946667-20.48 4.693333-46.506667-15.786667-58.453334s-46.506667-4.693333-58.453333 15.786667L512 409.6l-58.88-102.4a43.093333 43.093333 0 0 0-58.453333-15.786667c-20.48 11.946667-27.306667 37.973333-15.786667 58.453334L423.253333 426.666667H384c-23.466667 0-42.666667 19.2-42.666667 42.666666s19.2 42.666667 42.666667 42.666667h85.333333v42.666667H384c-23.466667 0-42.666667 19.2-42.666667 42.666666s19.2 42.666667 42.666667 42.666667h85.333333v85.333333c0 23.466667 19.2 42.666667 42.666667 42.666667s42.666667-19.2 42.666667-42.666667v-85.333333h85.333333c23.466667 0 42.666667-19.2 42.666667-42.666667zM938.666667 768h-85.333334v-85.333333c0-23.466667-19.2-42.666667-42.666666-42.666667s-42.666667 19.2-42.666667 42.666667v85.333333h-85.333333c-23.466667 0-42.666667 19.2-42.666667 42.666667s19.2 42.666667 42.666667 42.666666h85.333333v85.333334c0 23.466667 19.2 42.666667 42.666667 42.666666s42.666667-19.2 42.666666-42.666666v-85.333334h85.333334c23.466667 0 42.666667-19.2 42.666666-42.666666s-19.2-42.666667-42.666666-42.666667z" p-id="43132"></path><path d="M512 896c-211.626667 0-384-172.373333-384-384s172.373333-384 384-384 384 172.373333 384 384c0 23.466667 19.2 42.666667 42.666667 42.666667s42.666667-19.2 42.666666-42.666667c0-258.986667-210.346667-469.333333-469.333333-469.333333S42.666667 253.013333 42.666667 512s210.346667 469.333333 469.333333 469.333333c23.466667 0 42.666667-19.2 42.666667-42.666666s-19.2-42.666667-42.666667-42.666667z" p-id="43133"></path></svg>