<?xml version="1.0" standalone="no"?><!DOCTYPE svg PUBLIC "-//W3C//DTD SVG 1.1//EN" "http://www.w3.org/Graphics/SVG/1.1/DTD/svg11.dtd"><svg t="1744165458978" class="icon" viewBox="0 0 1024 1024" version="1.1" xmlns="http://www.w3.org/2000/svg" p-id="40394" xmlns:xlink="http://www.w3.org/1999/xlink" width="48" height="48"><path d="M511.999488 64.275909c-246.968811 0-447.716928 200.748117-447.716928 447.716928 0.187265 247.172449 200.529129 447.546036 447.716928 447.732277 246.953462 0 447.716928-200.748117 447.716928-447.732277-0.001023-246.968811-200.763466-447.716928-447.716928-447.716928z m0.062422 831.427076c-211.92876 0.062422-383.758244-171.70464-383.820666-383.617027 0.171915-211.897038 171.907255-383.6641 383.820666-383.851365 211.92876 0.031722 383.694799 171.829484 383.694799 383.726521 0 211.912387-171.766039 383.741871-383.694799 383.741871z m-0.062422-511.630586h-95.939049v-95.939049L245.105882 417.926438 416.060439 543.972179v-95.940073h95.939049c90.849124 0 159.898757 56.090483 159.898757 127.919415 0 71.845305-66.051345 127.934764-159.898757 127.934764h-63.959707v63.958684h63.959707c127.919415 0 223.858464-87.756693 223.858464-191.893448 0-136.601144-91.270726-191.879122-223.858464-191.879122z" p-id="40395"></path></svg>