<?xml version="1.0" standalone="no"?><!DOCTYPE svg PUBLIC "-//W3C//DTD SVG 1.1//EN" "http://www.w3.org/Graphics/SVG/1.1/DTD/svg11.dtd"><svg t="1744185736290" class="icon" viewBox="0 0 1024 1024" version="1.1" xmlns="http://www.w3.org/2000/svg" p-id="93103" xmlns:xlink="http://www.w3.org/1999/xlink" width="48" height="48"><path d="M457.2 854.544H82.51L8.75 780.847V138.83l0.652-0.621L82.51 65.102l789.783-3.755 37.888 37.888 36.274 35.809c0 124.245-1.551 249.763-0.372 374.04l-70.439-3.321V323.615l-718.29-0.341V252.71l718.29-3.786V164.15l-32.706-32.333-730.546 3.785-33.079 32.675v582.811l33.358 32.986h344.592v70.5l-0.063-0.03z" p-id="93104"></path><path d="M886.474 541.168a83.328 83.328 0 0 0-32.675-5.43l-2.793 0.093c-11.916 0.652-23.49 3.662-34.133 8.689a91.247 91.247 0 0 0-30.1 23.024l-0.062 0.031a60.54 60.54 0 0 1-21.535 15.919 60.95 60.95 0 0 1-25.848 5.058 60.207 60.207 0 0 1-25.91-5.058 60.029 60.029 0 0 1-21.597-15.919l-0.187-0.217a86.48 86.48 0 0 0-29.758-23.242c-11.419-5.43-23.955-8.347-36.802-8.378h-0.403c-11.233-0.403-22.31 1.52-32.675 5.43a83.418 83.418 0 0 0-27.927 17.595 83.323 83.323 0 0 0-19.022 27.058c-4.437 10.054-6.92 20.946-7.137 32.054h0.031c0 50.61 22.125 96.443 52.442 135.51 46.545 59.92 112.143 103.858 148.883 125.393 36.709-21.535 102.307-65.474 148.821-125.393 30.348-39.067 52.441-84.9 52.441-135.51h0.063c-0.249-11.108-2.7-22-7.137-32.085-4.469-10.085-10.892-19.332-19.022-27.058a83.954 83.954 0 0 0-27.958-17.564z m-101.438-63.146a155.14 155.14 0 0 1 68.39-14.305c43.443-0.869 83.193 15.794 112.423 43.535 29.293 27.804 48.035 66.716 49.338 110.282l0.062 0.341c0 98.8-59.764 180.286-123.717 239.182-62.992 58.058-130.141 94.177-146.556 102.68l-5.679 2.916-5.679-2.917c-16.415-8.502-83.564-44.652-146.556-102.679-63.922-58.896-123.655-140.35-123.655-239.182v-0.34c1.334-43.536 20.076-82.448 49.338-110.22 29.2-27.742 68.887-44.436 112.298-43.598a154.953 154.953 0 0 1 68.453 14.274 155.485 155.485 0 0 1 45.801 32.333 155.512 155.512 0 0 1 45.739-32.302z" p-id="93105"></path></svg>