<?xml version="1.0" standalone="no"?><!DOCTYPE svg PUBLIC "-//W3C//DTD SVG 1.1//EN" "http://www.w3.org/Graphics/SVG/1.1/DTD/svg11.dtd"><svg t="1744185599729" class="icon" viewBox="0 0 1024 1024" version="1.1" xmlns="http://www.w3.org/2000/svg" p-id="88975" xmlns:xlink="http://www.w3.org/1999/xlink" width="48" height="48"><path d="M774.826667 24.380952H251.611429c-93.622857 0-170.666667 77.04381-170.666667 170.666667v633.904762c0 93.622857 77.04381 170.666667 170.666667 170.666667h520.777142c93.622857 0 170.666667-74.605714 170.666667-170.666667V195.047619c2.925714-93.622857-77.04381-170.666667-168.228571-170.666667zM149.699048 195.047619c0-58.026667 46.811429-104.838095 104.838095-104.838095H775.314286c58.026667 0 104.838095 46.811429 104.838095 104.838095v79.969524c0 52.175238-77.04381 110.201905-200.899048 137.508571-11.215238-79.969524-77.04381-143.36-159.939047-143.36-82.407619 0-151.649524 60.464762-162.377143 143.36-126.780952-27.306667-206.750476-85.333333-206.750476-137.508571V195.047619z m468.114285 236.982857c0 55.100952-46.811429 101.912381-101.912381 101.912381s-101.912381-46.811429-101.912381-101.912381c0-55.100952 46.811429-101.912381 101.912381-101.912381 58.026667 0 101.912381 46.811429 101.912381 101.912381z m157.013334 501.272381H251.611429c-58.026667 0-104.838095-46.811429-104.838096-104.838095V390.582857C196.510476 429.104762 270.628571 459.337143 358.887619 475.91619c19.504762 66.31619 79.969524 118.491429 157.013333 118.491429 77.04381 0 137.508571-49.737143 157.013334-118.491429 85.333333-16.579048 157.013333-46.811429 203.824762-82.407619v437.881905c0.487619 55.100952-46.811429 101.912381-101.912381 101.912381z m0 0" p-id="88976"></path></svg>