<?xml version="1.0" standalone="no"?><!DOCTYPE svg PUBLIC "-//W3C//DTD SVG 1.1//EN" "http://www.w3.org/Graphics/SVG/1.1/DTD/svg11.dtd"><svg t="1744184978427" class="icon" viewBox="0 0 1024 1024" version="1.1" xmlns="http://www.w3.org/2000/svg" p-id="54024" xmlns:xlink="http://www.w3.org/1999/xlink" width="48" height="48"><path d="M513.023284 871.735385h-0.920956c-17.805136-0.102328-44.410513-8.902568-63.750574-28.140302L136.045568 518.395523c-0.409313-0.409313-0.818627-0.920955-1.22794-1.432597-38.884781-48.605976-62.624963-81.760368-62.624963-149.297092 0-58.327171 23.330868-115.017088 64.05756-155.539123 40.522035-40.419706 95.779354-62.624963 155.641451-62.624962h0.818627c43.591886 0.102328 85.239532 13.20036 120.440491 38.066153 9.516538 6.753672 11.767763 19.851704 5.116419 29.368243s-19.851704 11.767763-29.368242 5.116418c-28.037973-19.749375-61.294694-30.289198-96.188668-30.289197h-0.716299c-49.322274 0-92.811832 17.395823-125.863895 50.345558-32.847407 32.745078-51.573499 78.48586-51.573499 125.659238 0 53.517738 17.191166 77.564905 52.801439 122.180074l311.282902 324.176277c11.153792 11.153792 26.912361 15.451584 34.075348 15.553912 4.707105-0.102328 11.256121-1.739582 25.582092-16.065554 3.069851-2.865194 252.648746-234.741281 321.106426-319.878485 37.04287-45.945438 56.587589-91.481563 56.587588-131.491956 0-91.583891-87.081443-178.153692-179.279304-178.153692-27.730988 0-84.932547 9.823524-123.408015 46.764065-32.131108 31.005496-123.612671 123.919656-124.533626 124.840612-8.18627 8.288598-21.488958 8.390926-29.879884 0.204656-8.288598-8.18627-8.390926-21.488958-0.204657-29.879884 3.78615-3.78615 92.811832-94.142101 125.352254-125.659238 45.126811-43.182572 110.412311-58.531828 152.673928-58.531828 115.938043 0 221.438593 104.988908 221.438593 220.312981 0 49.731588-22.819227 104.374938-65.899471 157.892675C821.747976 607.625862 577.694814 834.283202 567.359648 843.902069c-19.340062 19.340062-35.81493 27.833317-54.336364 27.833316z" fill="#272636" p-id="54025"></path></svg>