<?xml version="1.0" standalone="no"?><!DOCTYPE svg PUBLIC "-//W3C//DTD SVG 1.1//EN" "http://www.w3.org/Graphics/SVG/1.1/DTD/svg11.dtd"><svg t="1744164772730" class="icon" viewBox="0 0 1024 1024" version="1.1" xmlns="http://www.w3.org/2000/svg" p-id="16094" xmlns:xlink="http://www.w3.org/1999/xlink" width="48" height="48"><path d="M954.88 376.576A460.8 460.8 0 0 1 235.52 885.248l13.056 92.16a38.4 38.4 0 0 1-32.512 43.52h-5.376a38.4 38.4 0 0 1-37.888-33.024l-25.6-179.2a38.4 38.4 0 0 1 32.512-43.52l179.2-25.6a38.784 38.784 0 0 1 10.752 76.8l-83.2 11.776a384 384 0 0 0 605.952-389.12z m-334.208-44.4672c3.328 1.536 6.8096 3.5072 10.4704 5.888 8.2944 5.504 12.8 11.264 13.44 17.2544 0.6656 5.9904-1.664 13.7984-6.9632 23.3984l-59.8016 102.2976h38.3744c18.5856 0 27.904 9.6 27.904 28.8 0 18.8416-9.3184 28.2624-27.904 28.2624h-70.272v26.24h70.272c18.5856 0 27.904 9.6 27.904 28.7744 0 18.8672-9.3184 28.288-27.904 28.288h-70.272v59.648c0 13.3632-1.8432 22.272-5.4784 26.7264-3.6608 4.4544-11.6224 6.6816-23.936 6.6816-10.624 0-18.2528-2.2272-22.912-6.656-4.6592-4.48-6.9888-13.3888-6.9888-26.752v-59.648h-69.248c-18.6112 0-27.904-9.4208-27.904-28.288 0-19.2 8.96-28.7744 26.88-28.7744h70.272v-26.24h-69.248c-18.6112 0-27.904-9.4208-27.904-28.2624 0-19.2 8.96-28.8 26.88-28.8h39.3728l-20.1472-33.92-10.24-17.2288-30.3872-51.1488c-5.3248-8.9344-7.2448-16.8192-5.7344-23.6544 1.4848-6.8608 5.5552-12.6976 12.2112-17.4848 7.6288-5.4784 14.6944-7.7056 21.1712-6.6816 6.4768 1.024 12.6976 6.656 18.688 16.9728l75.7504 130.56c12.288-21.5808 24.576-43.0848 36.864-64.512s24.576-42.9312 36.864-64.512a61.44 61.44 0 0 1 10.24-13.6192 18.6624 18.6624 0 0 1 9.728-5.1456c3.328-0.512 6.6304 0 9.9584 1.536zM793.344 23.552a38.784 38.784 0 0 1 43.776 33.024l25.6 179.2a38.4 38.4 0 0 1-32.512 43.52l-179.2 25.6h-5.376a38.5024 38.5024 0 0 1-5.376-76.8l104.704-14.848a381.696 381.696 0 0 0-227.328-75.008A384 384 0 0 0 141.568 605.952L79.36 668.16a460.8 460.8 0 0 1 691.2-529.664l-10.24-71.168A38.784 38.784 0 0 1 793.344 23.552z" fill="#000000" p-id="16095"></path></svg>