<?xml version="1.0" standalone="no"?><!DOCTYPE svg PUBLIC "-//W3C//DTD SVG 1.1//EN" "http://www.w3.org/Graphics/SVG/1.1/DTD/svg11.dtd"><svg t="1744164388169" class="icon" viewBox="0 0 1039 1024" version="1.1" xmlns="http://www.w3.org/2000/svg" p-id="12851" xmlns:xlink="http://www.w3.org/1999/xlink" width="48.703125" height="48"><path d="M405.544554 57.283168C383.239604 47.651485 359.920792 45.623762 336.09505 50.186139c-45.116832 8.617822-82.122772 45.623762-75.532674 96.316831C266.645545 190.09901 283.881188 228.118812 314.29703 260.055446c6.083168 6.590099 18.249505 20.784158 19.263366 21.798019 58.29703 39.033663 179.453465 56.776238 353.330693-2.534653 0 0 0-0.506931 0.506931-0.506931l7.09703-6.083168c23.318812-21.79802 44.609901-46.637624 55.762376-76.546535 5.576238-14.194059 6.590099-20.277228 10.645544-33.964356 7.09703-42.075248-1.013861-67.421782-26.867326-88.712872-34.978218-28.388119-75.025743-31.936634-117.100991-15.20792-3.041584 1.013861-5.069307 2.027723-7.60396-0.506931-9.631683-9.124752-19.770297-18.756436-31.936634-21.79802-31.936634-8.617822-100.372277-7.60396-132.815841 0-12.166337 3.041584-21.291089 12.166337-30.922772 20.784159-3.041584 1.520792-5.069307 2.027723-8.110892 0.50693z" fill="#999999" p-id="12852"></path><path d="M232.681188 946.946535c186.043564-0.506931 372.087129 0 558.130693 0 59.817822 0 105.948515-25.853465 139.405941-72.99802 17.235644-23.825743 24.839604-51.2 29.40198-79.588119 3.548515-22.30495 5.576238-44.609901 6.083168-67.421782v-20.277228c-1.013861-35.992079-6.083168-72.491089-16.221782-107.976237-33.964356-122.677228-107.469307-217.473267-222.035643-282.360397-13.180198-7.60396-26.867327-13.687129-40.554456-20.277227v-0.506931c-173.877228 59.310891-293.005941 31.429703-356.879208 2.534654-0.506931 0-1.013861 0.506931-1.520792 0.50693-155.120792 68.435644-259.548515 215.952475-271.714851 384.253466-0.506931 8.110891-1.013861 16.221782-1.013862 24.839604v21.291089c0.506931 30.922772 4.562376 61.845545 12.673268 92.261386 19.263366 71.984158 85.164356 125.718812 164.245544 125.718812zM400.475248 468.910891c9.124752 26.360396 16.728713 49.679208 21.798019 68.435644l-51.2 15.20792c-5.576238-21.79802-13.687129-43.59604-24.839604-64.887128L400.475248 468.910891z m-76.039604 260.562376v-43.596039h161.20396c3.041584-11.152475 4.562376-21.291089 5.576238-31.429703 7.09703 0.506931 16.728713 1.013861 28.895049 2.027723-5.069307-6.083168-12.166337-13.180198-21.291089-20.784159 30.415842-8.617822 54.748515-18.249505 72.99802-28.388119-8.110891-12.166337-19.263366-25.346535-33.964357-39.540594l42.582179-30.415841c10.645545 11.152475 20.784158 23.825743 30.415841 38.019802 10.645545-12.673267 20.277228-28.89505 28.89505-49.172278h-71.477228c-14.70099 20.277228-33.964356 40.554455-57.790099 60.324753-9.631683-9.124752-19.263366-16.728713-28.89505-22.304951v106.455446H430.891089v-71.984158c-25.853465 15.714851-44.609901 29.908911-55.255445 42.582178-3.041584 4.055446-6.083168 6.083168-8.110892 6.083168-2.534653 0-5.069307-2.027723-7.60396-6.590099l-27.374257-43.59604 98.851485-50.186138V444.578218h46.130693c8.617822 0 12.673267 2.027723 12.673267 6.083168 0 2.027723-0.506931 4.562376-2.027723 7.603961-3.548515 7.60396-5.069307 22.811881-5.069307 45.116831v46.130693c34.471287-29.908911 58.80396-68.942574 72.99802-116.087128 13.687129 3.041584 26.867327 6.590099 40.554456 10.645544s21.291089 6.590099 23.318812 8.110891c2.027723 1.520792 3.041584 3.548515 3.041584 6.083169s-2.027723 5.069307-6.590099 8.617821c-4.562376 3.041584-9.631683 8.617822-16.221782 16.728713h112.538613c-10.645545 46.637624-28.388119 85.164356-53.734653 115.073268-24.839604 29.908911-58.29703 52.720792-100.372277 69.449504-1.013861 2.027723-3.041584 4.562376-5.576238 7.603961-2.534653 3.041584-4.562376 6.590099-6.083168 11.152475h168.30099v43.59604h-143.461386c37.005941 35.485149 87.192079 56.269307 150.051485 62.352475-14.70099 16.728713-25.853465 33.964356-34.471287 52.720792-66.914851-13.687129-121.663366-47.651485-163.738614-101.386139-11.659406 20.277228-30.415842 40.047525-55.762376 58.29703-25.853465 18.249505-62.859406 33.457426-111.017822 44.10297-10.645545-16.728713-23.318812-32.443564-38.019802-47.144554 76.546535-8.110891 126.225743-30.922772 150.051485-68.942574l-144.475247-1.013862z" fill="#999999" p-id="12853"></path></svg>