<?xml version="1.0" standalone="no"?><!DOCTYPE svg PUBLIC "-//W3C//DTD SVG 1.1//EN" "http://www.w3.org/Graphics/SVG/1.1/DTD/svg11.dtd"><svg t="1744164671474" class="icon" viewBox="0 0 1024 1024" version="1.1" xmlns="http://www.w3.org/2000/svg" p-id="15072" xmlns:xlink="http://www.w3.org/1999/xlink" width="48" height="48"><path d="M516.042 352.113c-1.892 0-3.784-0.172-5.676-0.516l-355.725-63.99c-15.138-2.752-26.318-15.997-26.318-31.478v-95.984c0-52.808 43.003-95.984 95.983-95.984h575.56c52.808 0 95.983 43.004 95.983 95.984v95.984c0 15.481-11.008 28.726-26.146 31.479l-347.812 63.989c-2.064 0.344-3.957 0.516-5.849 0.516zM192.14 229.467l323.73 58.14 315.818-58.14v-69.322c0-17.545-14.277-31.994-31.994-31.994h-575.56c-17.545 0-31.994 14.277-31.994 31.994v69.322zM799.866 959.667H224.134c-52.808 0-95.983-43.004-95.983-95.984V384.108c0-17.718 14.277-31.995 31.994-31.995s31.995 14.277 31.995 31.995v479.747c0 17.717 14.277 31.994 31.994 31.994h575.732c17.717 0 31.994-14.277 31.994-31.994V384.108c0-17.718 14.277-31.995 31.995-31.995 17.717 0 31.994 14.277 31.994 31.995v479.747c-0.172 52.808-43.175 95.812-95.983 95.812z" p-id="15073"></path><path d="M607.726 639.892c17.717 0 31.994-14.277 31.994-31.994s-14.277-31.995-31.994-31.995H555.95l76.03-73.278c12.729-12.213 13.073-32.51 0.86-45.067-12.213-12.73-32.51-12.902-45.24-0.689l-76.202 73.623-73.278-73.106c-12.557-12.558-32.855-12.558-45.24 0-12.557 12.557-12.385 32.51 0 45.067l73.966 73.622h-51.088c-17.717 0-31.995 14.277-31.995 31.995s14.278 31.995 31.995 31.995h64.161v31.994h-64.16c-17.718 0-31.996 14.277-31.996 31.995 0 17.717 14.278 31.994 31.995 31.994h64.161v64.334c0 17.717 14.278 31.994 31.995 31.994s31.995-14.277 31.995-31.994v-64.334h63.817c17.717 0 31.994-14.277 31.994-31.994 0-17.718-14.277-31.995-31.994-31.995h-63.817v-32.167h63.817z" p-id="15074"></path></svg>