<?xml version="1.0" standalone="no"?><!DOCTYPE svg PUBLIC "-//W3C//DTD SVG 1.1//EN" "http://www.w3.org/Graphics/SVG/1.1/DTD/svg11.dtd"><svg t="1744164052359" class="icon" viewBox="0 0 1024 1024" version="1.1" xmlns="http://www.w3.org/2000/svg" p-id="5445" xmlns:xlink="http://www.w3.org/1999/xlink" width="48" height="48"><path d="M516.554 56c28.653 0 55.089 8.213 79.183 21.842l2.03 1.164a191.48 191.48 0 0 1 13.245 8.448l1.763 1.238 0.694-0.185c72.979-19.067 133.322 15.681 147.881 99.147 8.702 49.886-12.302 96.646-59.896 140.114 68.147 21.644 125.618 70.874 156.836 137.653l1.278 2.778 72.19 159.257A238.097 238.097 0 0 1 953 725.758c0 130.261-104.617 236.106-234.471 238.21l-3.943 0.032H321.414l-3.943-0.032C187.617 961.864 83 856.02 83 725.758a238.1 238.1 0 0 1 21.241-98.302l72.19-159.257 1.28-2.778c30.834-65.96 87.283-114.799 154.333-136.845-48.224-43.695-69.545-90.726-60.789-140.922 14.56-83.466 74.903-118.214 147.882-99.147l0.694 0.185 1.762-1.238a191.48 191.48 0 0 1 13.245-8.448l2.03-1.164C460.963 64.213 487.398 56 516.052 56l0.25 0.001z m106.165 319.362H413.28l-2.355 0.014c-77.665 0.908-147.892 46.662-179.998 117.49l-72.19 159.257-0.818 1.83a178.35 178.35 0 0 0-15.093 71.805c0 98.56 79.956 178.458 178.587 178.458h393.172c98.631 0 178.587-79.898 178.587-178.458a178.35 178.35 0 0 0-15.093-71.804l-0.818-1.83-72.19-159.258c-32.106-70.828-102.333-116.582-179.998-117.49l-2.355-0.014z m-179.56 99.635l0.013 0.014 74.124 74.18 73.459-73.514 0.014-0.014c9.896-9.888 25.934-9.882 35.823 0.014 9.799 9.807 9.897 25.638 0.294 35.566l-0.294 0.299-72.33 72.385h64.894c13.97 0 25.293 11.324 25.293 25.293 0 13.97-11.324 25.293-25.293 25.293h-74.801v39.09h102.414c13.969 0 25.293 11.324 25.293 25.293s-11.324 25.293-25.293 25.293H544.355v63.214c0 13.84-11.107 25.084-24.893 25.308l-0.418 0.003c-13.84 0-25.085-11.106-25.308-24.892l-0.004-0.419V724.19H391.319c-13.97 0-25.293-11.324-25.293-25.293 0-13.97 11.324-25.293 25.293-25.293h102.413v-39.09H418.93c-13.969 0-25.293-11.324-25.293-25.293s11.324-25.293 25.293-25.293h61.399l-72.995-73.051c-9.898-9.906-9.898-25.959 0-35.865 9.889-9.896 25.927-9.902 35.824-0.014z m73.144-359.213l-0.421 0.002c-22.15 0.171-44.784 8.842-68.46 28.852a29.787 29.787 0 0 1-13.622 6.528c-5.338 2.115-10.252 2.091-18.518-1.253l-0.613-0.253-0.576-0.205c-21.867-7.729-40.497-8.109-53.777-1.982l-0.746 0.353c-14.21 6.924-24.594 22.676-29.377 50.094-6.358 36.45 19.063 75.55 83.048 117.659l206.125-0.001c63.984-42.108 89.405-81.207 83.047-117.658-4.783-27.418-15.167-43.17-29.378-50.094l-0.746-0.353c-13.28-6.127-31.91-5.747-53.777 1.982l-0.576 0.205-0.613 0.253c-8.266 3.344-13.18 3.368-18.518 1.253a29.793 29.793 0 0 1-13.621-6.528c-23.827-20.137-46.598-28.79-68.881-28.854z" fill="#333333" p-id="5446"></path></svg>